<svg width="24" height="24" viewBox="0 0 24 24" fill="none" xmlns="http://www.w3.org/2000/svg">
<path d="M16.8398 3C15.093 3 13.5616 3.77893 12.4113 5.25262C12.2579 5.44917 12.1212 5.64579 12 5.83623C11.8788 5.64575 11.7421 5.44917 11.5887 5.25262C10.4384 3.77893 8.90701 3 7.16016 3C3.8602 3 1.5 5.7631 1.5 9.07868C1.5 12.8699 4.60722 16.4429 11.575 20.664C11.7056 20.7431 11.8528 20.7827 12 20.7827C12.1472 20.7827 12.2944 20.7431 12.425 20.664C19.3928 16.443 22.5 12.8699 22.5 9.07872C22.5 5.76486 20.1417 3 16.8398 3Z" fill="currentColor"/>
</svg>
