<svg width="32" height="32" viewBox="0 0 32 32" fill="none" xmlns="http://www.w3.org/2000/svg">
<path d="M21.9205 11.0609C21.5784 10.7246 21.1722 10.4578 20.7252 10.2757C20.2782 10.0937 19.799 10 19.3151 10C18.8312 10 18.3521 10.0937 17.905 10.2757C17.458 10.4578 17.0518 10.7246 16.7098 11.0609L15.9998 11.7586L15.2899 11.0609C14.5989 10.3818 13.6617 10.0004 12.6845 10.0004C11.7073 10.0004 10.7702 10.3818 10.0792 11.0609C9.38819 11.7399 9 12.6609 9 13.6212C9 14.5816 9.38819 15.5026 10.0792 16.1816L10.7891 16.8793L15.9998 22L21.2105 16.8793L21.9205 16.1816C22.2627 15.8454 22.5342 15.4463 22.7194 15.007C22.9047 14.5677 23 14.0968 23 13.6212C23 13.1457 22.9047 12.6748 22.7194 12.2355C22.5342 11.7962 22.2627 11.3971 21.9205 11.0609V11.0609Z" stroke="currentColor" stroke-width="1.5"/>
</svg>
