<svg width="32" height="32" viewBox="0 0 32 32" fill="none" xmlns="http://www.w3.org/2000/svg">
<path fill-rule="evenodd" clip-rule="evenodd" d="M13.2502 13.4007C13.2502 11.9254 14.4695 10.7084 15.9998 10.7084C17.5301 10.7084 18.7494 11.9254 18.7494 13.4007C18.7494 14.876 17.5301 16.093 15.9998 16.093C14.4695 16.093 13.2502 14.876 13.2502 13.4007ZM15.9998 9.20837C13.6646 9.20837 11.7502 11.0737 11.7502 13.4007C11.7502 15.7277 13.6646 17.593 15.9998 17.593C18.3351 17.593 20.2494 15.7277 20.2494 13.4007C20.2494 11.0737 18.3351 9.20837 15.9998 9.20837ZM12.375 22.6657C12.375 21.1787 13.5804 19.9734 15.0673 19.9734H16.9317C18.4186 19.9734 19.624 21.1787 19.624 22.6657H21.124C21.124 20.3503 19.247 18.4734 16.9317 18.4734H15.0673C12.752 18.4734 10.875 20.3503 10.875 22.6657H12.375Z" fill="currentColor"/>
</svg>
