<svg width="32" height="32" viewBox="0 0 32 32" fill="none" xmlns="http://www.w3.org/2000/svg">
<path d="M12.6637 10H10.1579C10.1579 10 9.80262 12.7433 10.1579 14.4408C10.5993 16.5495 11.1016 17.8516 12.625 19.375C14.1484 20.8984 15.4505 21.4007 17.5592 21.8421C19.2567 22.1974 22 21.8421 22 21.8421V19.3363C22 18.4754 21.4491 17.7111 20.6325 17.4389L19.5094 17.0645C19.2293 16.9712 18.9209 17.069 18.7459 17.3069C18.1043 18.1787 16.8226 18.2379 16.1034 17.4288L14.6653 15.8109C14.0139 15.0782 14.0561 13.9623 14.7609 13.2808C14.9633 13.0851 15.0355 12.7906 14.9464 12.5234L14.5611 11.3675C14.2889 10.5509 13.5246 10 12.6637 10Z" stroke="currentColor" stroke-width="1.5"/>
</svg>
