<svg style="display: none;" aria-hidden="true" xmlns="http://www.w3.org/2000/svg" xmlns:xlink="http://www.w3.org/1999/xlink"><symbol viewBox="0 0 16 16" fill="none" id="svg-arrow-circle" xmlns="http://www.w3.org/2000/svg"><rect x=".75" y=".75" width="14.5" height="14.5" rx="7.25" stroke="currentColor" stroke-width="1.5"/><path d="M7.24475 11L10.2448 8L7.24475 5" stroke="currentColor" stroke-width="1.5" stroke-linecap="round" stroke-linejoin="round"/></symbol><symbol viewBox="0 0 32 32" fill="none" id="svg-burger" xmlns="http://www.w3.org/2000/svg"><path fill-rule="evenodd" clip-rule="evenodd" d="M6 13.75H26V12.25H6V13.75ZM6 19.75H26V18.25H6V19.75Z" fill="currentColor"/></symbol><symbol viewBox="0 0 32 32" fill="none" id="svg-fav" xmlns="http://www.w3.org/2000/svg"><path d="M21.9205 11.0609C21.5784 10.7246 21.1722 10.4578 20.7252 10.2757C20.2782 10.0937 19.799 10 19.3151 10C18.8312 10 18.3521 10.0937 17.905 10.2757C17.458 10.4578 17.0518 10.7246 16.7098 11.0609L15.9998 11.7586L15.2899 11.0609C14.5989 10.3818 13.6617 10.0004 12.6845 10.0004C11.7073 10.0004 10.7702 10.3818 10.0792 11.0609C9.38819 11.7399 9 12.6609 9 13.6212C9 14.5816 9.38819 15.5026 10.0792 16.1816L10.7891 16.8793L15.9998 22L21.2105 16.8793L21.9205 16.1816C22.2627 15.8454 22.5342 15.4463 22.7194 15.007C22.9047 14.5677 23 14.0968 23 13.6212C23 13.1457 22.9047 12.6748 22.7194 12.2355C22.5342 11.7962 22.2627 11.3971 21.9205 11.0609V11.0609Z" stroke="currentColor" stroke-width="1.5"/></symbol><symbol viewBox="0 0 24 24" fill="none" id="svg-fav-fill" xmlns="http://www.w3.org/2000/svg"><path d="M16.8398 3C15.093 3 13.5616 3.77893 12.4113 5.25262C12.2579 5.44917 12.1212 5.64579 12 5.83623C11.8788 5.64575 11.7421 5.44917 11.5887 5.25262C10.4384 3.77893 8.90701 3 7.16016 3C3.8602 3 1.5 5.7631 1.5 9.07868C1.5 12.8699 4.60722 16.4429 11.575 20.664C11.7056 20.7431 11.8528 20.7827 12 20.7827C12.1472 20.7827 12.2944 20.7431 12.425 20.664C19.3928 16.443 22.5 12.8699 22.5 9.07872C22.5 5.76486 20.1417 3 16.8398 3Z" fill="currentColor"/></symbol><symbol viewBox="0 0 32 32" fill="none" id="svg-person" xmlns="http://www.w3.org/2000/svg"><path fill-rule="evenodd" clip-rule="evenodd" d="M13.2502 13.4007C13.2502 11.9254 14.4695 10.7084 15.9998 10.7084C17.5301 10.7084 18.7494 11.9254 18.7494 13.4007C18.7494 14.876 17.5301 16.093 15.9998 16.093C14.4695 16.093 13.2502 14.876 13.2502 13.4007ZM15.9998 9.20837C13.6646 9.20837 11.7502 11.0737 11.7502 13.4007C11.7502 15.7277 13.6646 17.593 15.9998 17.593C18.3351 17.593 20.2494 15.7277 20.2494 13.4007C20.2494 11.0737 18.3351 9.20837 15.9998 9.20837ZM12.375 22.6657C12.375 21.1787 13.5804 19.9734 15.0673 19.9734H16.9317C18.4186 19.9734 19.624 21.1787 19.624 22.6657H21.124C21.124 20.3503 19.247 18.4734 16.9317 18.4734H15.0673C12.752 18.4734 10.875 20.3503 10.875 22.6657H12.375Z" fill="currentColor"/></symbol><symbol viewBox="0 0 32 32" fill="none" id="svg-tel" xmlns="http://www.w3.org/2000/svg"><path d="M12.6637 10H10.1579C10.1579 10 9.80262 12.7433 10.1579 14.4408C10.5993 16.5495 11.1016 17.8516 12.625 19.375C14.1484 20.8984 15.4505 21.4007 17.5592 21.8421C19.2567 22.1974 22 21.8421 22 21.8421V19.3363C22 18.4754 21.4491 17.7111 20.6325 17.4389L19.5094 17.0645C19.2293 16.9712 18.9209 17.069 18.7459 17.3069C18.1043 18.1787 16.8226 18.2379 16.1034 17.4288L14.6653 15.8109C14.0139 15.0782 14.0561 13.9623 14.7609 13.2808C14.9633 13.0851 15.0355 12.7906 14.9464 12.5234L14.5611 11.3675C14.2889 10.5509 13.5246 10 12.6637 10Z" stroke="currentColor" stroke-width="1.5"/></symbol></svg>