<svg width="355" height="400" viewBox="0 0 355 400" fill="none" xmlns="http://www.w3.org/2000/svg">
<g opacity="0.03">
<path fill-rule="evenodd" clip-rule="evenodd" d="M175.331 399.999C168.513 374.857 165.981 349.15 164.967 324.817C167.577 326.614 170.247 328.158 172.949 329.439L175.331 399.999Z" fill="white"/>
<path fill-rule="evenodd" clip-rule="evenodd" d="M179.066 399.999C185.887 374.857 188.415 349.15 189.429 324.817C186.826 326.614 184.159 328.158 181.447 329.439L179.066 399.999Z" fill="white"/>
<path fill-rule="evenodd" clip-rule="evenodd" d="M192.396 223.664L180.941 203.423V90.1598L192.663 83.4526H179.813V83.4316L175.461 83.4526H161.548L173.271 90.1598V203.423L161.815 223.664C161.26 174.131 160.51 80.015 160.51 80.015L117.319 85.0993L120.699 73.9737L160.51 74.1177V73.9948H180.674L169.734 67.4886L169.725 16.396H165.703V6.19721L176.885 0L188.077 6.19721V16.396H177.116L184.474 20.6824V73.9948H193.701V74.1177L233.719 73.9737L237.1 85.0993L193.68 79.985C193.68 79.985 192.951 173.723 192.396 223.664Z" fill="white"/>
<path d="M194.385 284.707C193.236 286.477 192.021 288.165 190.761 289.767C186.541 295.238 181.9 299.714 177.104 302.893C172.31 299.714 167.67 295.238 163.438 289.767C162.19 288.177 160.984 286.489 159.835 284.731L177.203 253.01L194.463 284.575C194.442 284.62 194.418 284.662 194.385 284.707ZM323.204 193.743L354.208 142.983L236.283 217.098L328.663 140.098L347.204 68.9767L239.253 191.796L312.399 88.4203L319.946 8.19531L221.222 180.107L209.467 200.579C213.078 214.459 213.135 230.899 209.578 247.571C208.231 253.85 206.416 259.882 204.196 265.548L177.203 216.237L150.089 265.737C147.837 260.014 145.992 253.925 144.633 247.571C141.075 230.899 141.141 214.459 144.732 200.579L132.985 180.107L34.2647 8.19531L41.7998 88.4203L114.943 191.796L6.99513 68.9767L25.5328 140.098L117.927 217.098L0 142.983L31.0041 193.743L119.064 232.081L7.97899 206.393L45.7983 239.772L119.649 247.172L52.2415 254.102L94.9771 266.721L127.01 259.507L98.9456 275.957L128.876 282.652L135.229 277.493V277.484L141.039 272.753L137.782 288.21L136.909 289.8L126.821 308.221L121.308 318.297C122.169 319.775 123.066 321.203 123.968 322.571C125.12 324.341 126.335 326.03 127.595 327.634C129.32 329.878 131.108 331.93 132.964 333.808L140.178 320.648L148.919 304.672L150.179 302.387C158.023 312.054 167.106 319.235 176.717 323.147C176.849 323.201 176.984 323.258 177.104 323.3C177.227 323.258 177.359 323.201 177.491 323.147C187.126 319.235 196.208 312.042 204.044 302.366C204.074 302.321 204.109 302.276 204.139 302.231L205.012 303.811L213.744 319.802L220.946 332.971C222.815 331.081 224.603 329.023 226.328 326.782C227.588 325.169 228.802 323.501 229.951 321.722C230.857 320.342 231.754 318.914 232.615 317.445L227.102 307.369L217.014 288.951L216.318 287.679L213.168 272.753L218.982 277.484V277.493L225.332 282.652L255.253 275.957L227.192 259.507L259.231 266.721L301.969 254.102L234.559 247.172L308.4 239.772L346.22 206.393L235.144 232.081L323.204 193.743Z" fill="white"/>
</g>
</svg>
