<svg width="57" height="64" viewBox="0 0 57 64" fill="none" xmlns="http://www.w3.org/2000/svg">
<path fill-rule="evenodd" clip-rule="evenodd" d="M28.053 63.9999C26.9621 59.9771 26.557 55.864 26.3948 51.9707C26.8123 52.2582 27.2395 52.5054 27.6719 52.7103L28.053 63.9999Z" fill="#333333"/>
<path fill-rule="evenodd" clip-rule="evenodd" d="M28.6504 63.9999C29.7418 59.9771 30.1464 55.864 30.3086 51.9707C29.892 52.2582 29.4653 52.5054 29.0315 52.7103L28.6504 63.9999Z" fill="#333333"/>
<path fill-rule="evenodd" clip-rule="evenodd" d="M30.7834 35.7862L28.9505 32.5476V14.4256L30.8261 13.3524H28.7701V13.3491L28.0737 13.3524H25.8477L27.7233 14.4256V32.5476L25.8904 35.7862C25.8016 27.861 25.6817 12.8024 25.6817 12.8024L18.771 13.6159L19.3119 11.8358L25.6817 11.8588V11.8392H28.9078L27.1575 10.7982L27.156 2.62335H26.5124V0.991553L28.3016 0L30.0923 0.991553V2.62335H28.3386L29.5159 3.30919V11.8392H30.9922V11.8588L37.3951 11.8358L37.936 13.6159L30.9888 12.7976C30.9888 12.7976 30.8722 27.7957 30.7834 35.7862Z" fill="#333333"/>
<path d="M31.1016 45.5534C30.9177 45.8365 30.7234 46.1067 30.5218 46.363C29.8465 47.2384 29.104 47.9545 28.3366 48.4632C27.5697 47.9545 26.8272 47.2384 26.15 46.363C25.9504 46.1086 25.7574 45.8384 25.5736 45.5572L28.3525 40.4818L31.114 45.5322C31.1107 45.5394 31.1068 45.5462 31.1016 45.5534ZM51.7126 30.9992L56.6732 22.8776L37.8054 34.736L52.5861 22.4159L55.5526 11.0365L38.2805 30.6877L49.9838 14.1475L51.1914 1.31152L35.3956 28.8174L33.5147 32.093C34.0925 34.3136 34.1017 36.9442 33.5325 39.6117C33.317 40.6162 33.0266 41.5814 32.6714 42.488L28.3525 34.5982L24.0143 42.5182C23.6538 41.6025 23.3587 40.6282 23.1413 39.6117C22.5721 36.9442 22.5826 34.3136 23.1571 32.093L21.2777 28.8174L5.48235 1.31152L6.68796 14.1475L18.3908 30.6877L1.11922 11.0365L4.08525 22.4159L18.8684 34.736L0 22.8776L4.96066 30.9992L19.0503 37.1333L1.27664 33.0231L7.32772 38.3638L19.1438 39.5479L8.35864 40.6565L15.1963 42.6756L20.3216 41.5214L15.8313 44.1534L20.6201 45.2246L21.6367 44.3991V44.3977L22.5663 43.6408L22.0451 46.1139L21.9054 46.3683L20.2914 49.3156L19.4093 50.9277C19.547 51.1643 19.6905 51.3928 19.835 51.6116C20.0193 51.8948 20.2136 52.165 20.4152 52.4218C20.6912 52.7808 20.9772 53.109 21.2743 53.4095L22.4286 51.304L23.8271 48.7478L24.0287 48.3821C25.2837 49.929 26.737 51.0779 28.2747 51.7038C28.2958 51.7124 28.3174 51.7215 28.3366 51.7283C28.3563 51.7215 28.3774 51.7124 28.3985 51.7038C29.9401 51.0779 31.3934 49.927 32.647 48.3788C32.6518 48.3716 32.6575 48.3644 32.6623 48.3572L32.802 48.6101L34.1991 51.1687L35.3514 53.2756C35.6504 52.9732 35.9365 52.644 36.2124 52.2855C36.414 52.0273 36.6084 51.7604 36.7922 51.4758C36.9371 51.255 37.0806 51.0266 37.2184 50.7914L36.3363 49.1793L34.7222 46.2325L34.6109 46.029L34.1069 43.6408L35.0371 44.3977V44.3991L36.0531 45.2246L40.8405 44.1534L36.3507 41.5214L41.4769 42.6756L48.3151 40.6565L37.5294 39.5479L49.3441 38.3638L55.3952 33.0231L37.623 37.1333L51.7126 30.9992Z" fill="#333333"/>
</svg>
