<svg width="269" height="300" viewBox="0 0 269 300" fill="none" xmlns="http://www.w3.org/2000/svg">
<g opacity="0.02">
<path d="M131.194 247.707L124.772 244.037C125.873 278.899 130.43 295.566 132.571 299.542L131.194 247.707Z" fill="white"/>
<path d="M136.695 248.165L143.118 244.496C142.017 279.358 137.46 296.025 135.319 300L136.695 248.165Z" fill="white"/>
<path d="M131.197 152.752L122.023 167.431L121.106 59.1743L88.0781 63.3028L91.2891 55.5046H135.326L128.445 50.4587V11.4679H125.234V4.58716L133.032 0H134.867L141.748 4.58716V11.4679H134.867V12.3853L139.454 15.5963V55.5046L175.693 54.5872L178.904 63.3028L145.418 59.1743V166.973L136.243 152.752L136.702 67.4312L144.041 63.3028V62.3853H123.399V63.3028L131.197 67.4312V152.752Z" fill="white"/>
<path d="M110.092 150C103.853 170.55 110.245 191.437 113.761 199.082L105.505 213.761L105.963 205.046L97.2477 211.926L75.2294 206.88L95.8716 194.495L70.1835 200L40.8257 190.367L88.5321 184.862L34.4037 179.816L7.33945 155.046L87.156 172.935L22.9358 144.954L0 107.798L87.156 161.009L19.2661 104.587L5.50459 51.8345L85.7798 141.743L31.6514 66.0547L26.1468 6.88037L110.092 150Z" fill="white"/>
<path d="M158.258 150C164.496 170.55 158.104 191.437 154.588 199.082L162.845 213.761L162.386 205.046L171.102 211.926L193.12 206.88L172.478 194.495L198.166 200L227.524 190.367L179.817 184.862L233.946 179.816L261.01 155.046L181.193 172.935L245.414 144.954L268.349 107.798L181.193 161.009L249.083 104.587L262.845 51.8345L182.57 141.743L236.698 66.0547L242.203 6.88037L158.258 150Z" fill="white"/>
<path d="M91.7461 238.991L133.948 162.385L176.608 238.991L166.975 250.917L154.131 227.064C149.85 231.805 139.819 241.56 133.948 242.66C128.076 243.761 117.74 232.722 113.306 227.064L100.462 250.917L91.7461 238.991Z" fill="white"/>
</g>
</svg>
