<svg width="36" height="36" viewBox="0 0 36 36" fill="none" xmlns="http://www.w3.org/2000/svg">
<path d="M18 0L24.3372 2.70055L30.7279 5.27208L33.2994 11.6628L36 18L33.2994 24.3372L30.7279 30.7279L24.3372 33.2994L18 36L11.6628 33.2994L5.27208 30.7279L2.70055 24.3372L0 18L2.70055 11.6628L5.27208 5.27208L11.6628 2.70055L18 0Z" fill="#B6B6B6"/>
<path fill-rule="evenodd" clip-rule="evenodd" d="M17.52 30.0002C17.1109 28.4916 16.959 26.9492 16.8982 25.4893C17.0548 25.5971 17.215 25.6898 17.3771 25.7666L17.52 30.0002Z" fill="#E4E4E4"/>
<path fill-rule="evenodd" clip-rule="evenodd" d="M17.7437 30.0002C18.1529 28.4916 18.3046 26.9492 18.3655 25.4893C18.2093 25.5971 18.0493 25.6898 17.8866 25.7666L17.7437 30.0002Z" fill="#E4E4E4"/>
<path fill-rule="evenodd" clip-rule="evenodd" d="M18.5435 19.4198L17.8561 18.2054V11.4096L18.5595 11.0072H17.7885V11.0059L17.5273 11.0072H16.6926L17.3959 11.4096V18.2054L16.7086 19.4198C16.6753 16.4479 16.6303 10.8009 16.6303 10.8009L14.0388 11.106L14.2417 10.4384L16.6303 10.4471V10.4397H17.8401L17.1837 10.0493L17.1832 6.98376H16.9419V6.37183L17.6128 6L18.2843 6.37183V6.98376H17.6267L18.0682 7.24095V10.4397H18.6218V10.4471L21.0228 10.4384L21.2257 11.106L18.6205 10.7991C18.6205 10.7991 18.5768 16.4234 18.5435 19.4198Z" fill="#E4E4E4"/>
<path d="M18.6631 23.0829C18.5942 23.1891 18.5213 23.2904 18.4457 23.3865C18.1924 23.7148 17.914 23.9833 17.6262 24.1741C17.3386 23.9833 17.0602 23.7148 16.8063 23.3865C16.7314 23.2911 16.659 23.1898 16.5901 23.0843L17.6322 21.1811L18.6678 23.075C18.6665 23.0777 18.6651 23.0802 18.6631 23.0829ZM26.3922 17.6251L28.2525 14.5795L21.177 19.0264L26.7198 14.4063L27.8322 10.1391L21.3552 17.5083L25.7439 11.3057L26.1968 6.49219L20.2733 16.8069L19.568 18.0352C19.7847 18.868 19.7881 19.8544 19.5747 20.8548C19.4939 21.2314 19.385 21.5934 19.2518 21.9334L17.6322 18.9747L16.0054 21.9447C15.8702 21.6013 15.7595 21.2359 15.678 20.8548C15.4645 19.8544 15.4685 18.868 15.6839 18.0352L14.9791 16.8069L9.05588 6.49219L9.50799 11.3057L13.8966 17.5083L7.41971 10.1391L8.53197 14.4063L14.0756 19.0264L7 14.5795L8.86025 17.6251L14.1438 19.9253L7.47874 18.384L9.7479 20.3868L14.1789 20.8308L10.1345 21.2466L12.6986 22.0037L14.6206 21.5709L12.9367 22.5579L14.7326 22.9596L15.1137 22.65V22.6495L15.4624 22.3657L15.2669 23.2931L15.2145 23.3885L14.6093 24.4937L14.2785 25.0983C14.3301 25.187 14.3839 25.2727 14.4381 25.3547C14.5072 25.4609 14.5801 25.5622 14.6557 25.6585C14.7592 25.7932 14.8665 25.9163 14.9779 26.0289L15.4107 25.2394L15.9352 24.2808L16.0108 24.1437C16.4814 24.7237 17.0264 25.1546 17.603 25.3893C17.6109 25.3925 17.619 25.3959 17.6262 25.3985C17.6336 25.3959 17.6415 25.3925 17.6494 25.3893C18.2275 25.1546 18.7725 24.723 19.2426 24.1424C19.2444 24.1397 19.2466 24.137 19.2484 24.1343L19.3007 24.2291L19.8247 25.1886L20.2568 25.9787C20.3689 25.8653 20.4762 25.7419 20.5797 25.6074C20.6553 25.5106 20.7281 25.4105 20.7971 25.3038C20.8514 25.221 20.9052 25.1353 20.9569 25.0471L20.6261 24.4426L20.0208 23.3375L19.9791 23.2612L19.7901 22.3657L20.1389 22.6495V22.65L20.5199 22.9596L22.3152 22.5579L20.6315 21.5709L22.5538 22.0037L25.1182 21.2466L21.0735 20.8308L25.504 20.3868L27.7732 18.384L21.1086 19.9253L26.3922 17.6251Z" fill="#E4E4E4"/>
</svg>
