<svg width="36" height="36" viewBox="0 0 36 36" fill="none" xmlns="http://www.w3.org/2000/svg">
<path d="M18 0L24.3372 2.70055L30.7279 5.27208L33.2994 11.6628L36 18L33.2994 24.3372L30.7279 30.7279L24.3372 33.2994L18 36L11.6628 33.2994L5.27208 30.7279L2.70055 24.3372L0 18L2.70055 11.6628L5.27208 5.27208L11.6628 2.70055L18 0Z" fill="#333333"/>
<path d="M8.18164 13.2188H10.9941C11.6078 13.2188 12.1277 13.3253 12.5538 13.5384C12.9799 13.7515 13.3038 14.0668 13.5254 14.4844C13.7512 14.8978 13.8642 15.4113 13.8642 16.0249C13.8642 16.4894 13.7939 16.8985 13.6532 17.2522C13.5169 17.6059 13.3187 17.9042 13.0588 18.1471C12.7988 18.3857 12.4856 18.5711 12.1191 18.7032L11.6653 18.9524H9.28746L9.28107 17.6485H10.9558C11.2583 17.6485 11.5098 17.5824 11.71 17.4503C11.9103 17.3182 12.0595 17.135 12.1575 16.9006C12.2598 16.6662 12.3109 16.3999 12.3109 16.1016C12.3109 15.782 12.2662 15.505 12.1767 15.2706C12.0872 15.032 11.9466 14.8488 11.7548 14.7209C11.563 14.5888 11.3095 14.5228 10.9941 14.5228H9.73491V22.5256H8.18164V13.2188ZM12.5154 22.5256L10.7449 18.3452L12.362 18.3388L14.1774 22.4425V22.5256H12.5154Z" fill="white"/>
<path d="M19.5597 19.4894H21.1066C21.0768 20.1627 20.9404 20.7358 20.6975 21.2088C20.4546 21.6776 20.1052 22.0355 19.6492 22.2827C19.1975 22.5299 18.6457 22.6534 17.9937 22.6534C17.4994 22.6534 17.0562 22.564 16.6641 22.385C16.2764 22.206 15.9461 21.9482 15.6734 21.6115C15.4006 21.2706 15.1918 20.8551 15.047 20.3651C14.9063 19.875 14.836 19.3189 14.836 18.6968V17.0476C14.836 16.4255 14.9085 15.8694 15.0533 15.3793C15.2025 14.8892 15.4156 14.4738 15.6925 14.1328C15.9695 13.7919 16.3062 13.5341 16.7025 13.3594C17.1031 13.1804 17.5548 13.0909 18.0576 13.0909C18.7011 13.0909 19.2423 13.2145 19.6812 13.4617C20.1201 13.7088 20.4589 14.0711 20.6975 14.5483C20.9362 15.0256 21.0747 15.6073 21.113 16.2934H19.5661C19.5448 15.8289 19.4809 15.4581 19.3744 15.1811C19.2721 14.8999 19.1144 14.6975 18.9014 14.5739C18.6925 14.4503 18.4113 14.3885 18.0576 14.3885C17.7636 14.3885 17.51 14.4439 17.297 14.5547C17.0881 14.6655 16.9156 14.8317 16.7792 15.0533C16.6471 15.2706 16.547 15.5455 16.4788 15.8779C16.4149 16.206 16.3829 16.5917 16.3829 17.0348V18.6968C16.3829 19.1229 16.4106 19.5 16.466 19.8282C16.5214 20.1563 16.6109 20.4354 16.7345 20.6655C16.858 20.8914 17.0221 21.064 17.2266 21.1833C17.4312 21.2983 17.6869 21.3559 17.9937 21.3559C18.3602 21.3559 18.6521 21.2983 18.8694 21.1833C19.091 21.0682 19.255 20.8743 19.3616 20.6016C19.4681 20.3289 19.5342 19.9581 19.5597 19.4894Z" fill="white"/>
<path d="M26.751 19.4894H28.2979C28.2681 20.1627 28.1317 20.7358 27.8888 21.2088C27.6459 21.6776 27.2965 22.0355 26.8405 22.2827C26.3888 22.5299 25.837 22.6534 25.185 22.6534C24.6907 22.6534 24.2475 22.564 23.8554 22.385C23.4677 22.206 23.1374 21.9482 22.8647 21.6115C22.592 21.2706 22.3831 20.8551 22.2383 20.3651C22.0976 19.875 22.0273 19.3189 22.0273 18.6968V17.0476C22.0273 16.4255 22.0998 15.8694 22.2447 15.3793C22.3938 14.8892 22.6069 14.4738 22.8839 14.1328C23.1608 13.7919 23.4975 13.5341 23.8938 13.3594C24.2944 13.1804 24.7461 13.0909 25.2489 13.0909C25.8924 13.0909 26.4336 13.2145 26.8725 13.4617C27.3114 13.7088 27.6502 14.0711 27.8888 14.5483C28.1275 15.0256 28.266 15.6073 28.3043 16.2934H26.7574C26.7361 15.8289 26.6722 15.4581 26.5657 15.1811C26.4634 14.8999 26.3057 14.6975 26.0927 14.5739C25.8839 14.4503 25.6026 14.3885 25.2489 14.3885C24.9549 14.3885 24.7013 14.4439 24.4883 14.5547C24.2795 14.6655 24.1069 14.8317 23.9705 15.0533C23.8384 15.2706 23.7383 15.5455 23.6701 15.8779C23.6062 16.206 23.5742 16.5917 23.5742 17.0348V18.6968C23.5742 19.1229 23.6019 19.5 23.6573 19.8282C23.7127 20.1563 23.8022 20.4354 23.9258 20.6655C24.0493 20.8914 24.2134 21.064 24.4179 21.1833C24.6225 21.2983 24.8782 21.3559 25.185 21.3559C25.5515 21.3559 25.8434 21.2983 26.0607 21.1833C26.2823 21.0682 26.4464 20.8743 26.5529 20.6016C26.6594 20.3289 26.7255 19.9581 26.751 19.4894Z" fill="white"/>
</svg>
