<svg width="36" height="36" viewBox="0 0 36 36" fill="none" xmlns="http://www.w3.org/2000/svg">
<path d="M18 0L24.3372 2.70055L30.7279 5.27208L33.2994 11.6628L36 18L33.2994 24.3372L30.7279 30.7279L24.3372 33.2994L18 36L11.6628 33.2994L5.27208 30.7279L2.70055 24.3372L0 18L2.70055 11.6628L5.27208 5.27208L11.6628 2.70055L18 0Z" fill="#CFC5A0"/>
<path d="M12.5667 13.2188H14.12V19.6811C14.12 20.3928 13.9857 20.9659 13.7173 21.4006C13.4531 21.8353 13.0951 22.1527 12.6434 22.353C12.196 22.5533 11.6974 22.6534 11.1477 22.6534C10.5766 22.6534 10.0674 22.5533 9.61997 22.353C9.17253 22.1527 8.82097 21.8353 8.56529 21.4006C8.3096 20.9659 8.18176 20.3928 8.18176 19.6811V13.2188H9.72864V19.6811C9.72864 20.1243 9.78404 20.4674 9.89483 20.7103C10.0099 20.9532 10.1718 21.1215 10.3806 21.2152C10.5937 21.309 10.8494 21.3559 11.1477 21.3559C11.446 21.3559 11.6995 21.309 11.9083 21.2152C12.1214 21.1215 12.2833 20.9532 12.3941 20.7103C12.5092 20.4674 12.5667 20.1243 12.5667 19.6811V13.2188Z" fill="#222222"/>
<path d="M17.5395 13.2188V22.5256H15.9862V13.2188H17.5395ZM20.5565 17.2777V18.5817H17.1815V17.2777H20.5565ZM20.9912 13.2188V14.5228H17.1815V13.2188H20.9912Z" fill="#222222"/>
<path d="M27.0506 19.4894H28.5974C28.5676 20.1627 28.4313 20.7358 28.1884 21.2088C27.9455 21.6776 27.596 22.0355 27.1401 22.2827C26.6884 22.5299 26.1365 22.6534 25.4845 22.6534C24.9902 22.6534 24.547 22.564 24.155 22.385C23.7672 22.206 23.4369 21.9482 23.1642 21.6115C22.8915 21.2706 22.6827 20.8551 22.5378 20.3651C22.3972 19.875 22.3268 19.3189 22.3268 18.6968V17.0476C22.3268 16.4255 22.3993 15.8694 22.5442 15.3793C22.6933 14.8892 22.9064 14.4738 23.1834 14.1328C23.4604 13.7919 23.797 13.5341 24.1933 13.3594C24.5939 13.1804 25.0456 13.0909 25.5484 13.0909C26.1919 13.0909 26.7331 13.2145 27.172 13.4617C27.6109 13.7088 27.9497 14.0711 28.1884 14.5483C28.427 15.0256 28.5655 15.6073 28.6038 16.2934H27.057C27.0357 15.8289 26.9717 15.4581 26.8652 15.1811C26.7629 14.8999 26.6053 14.6975 26.3922 14.5739C26.1834 14.4503 25.9021 14.3885 25.5484 14.3885C25.2544 14.3885 25.0009 14.4439 24.7878 14.5547C24.579 14.6655 24.4064 14.8317 24.27 15.0533C24.1379 15.2706 24.0378 15.5455 23.9696 15.8779C23.9057 16.206 23.8737 16.5917 23.8737 17.0348V18.6968C23.8737 19.1229 23.9014 19.5 23.9568 19.8282C24.0122 20.1563 24.1017 20.4354 24.2253 20.6655C24.3489 20.8914 24.5129 21.064 24.7175 21.1833C24.922 21.2983 25.1777 21.3559 25.4845 21.3559C25.851 21.3559 26.1429 21.2983 26.3602 21.1833C26.5818 21.0682 26.7459 20.8743 26.8524 20.6016C26.959 20.3289 27.025 19.9581 27.0506 19.4894Z" fill="#222222"/>
</svg>
